<?xml version="1.0" encoding="UTF-8"?>
<svg xmlns="http://www.w3.org/2000/svg" xmlns:xlink="http://www.w3.org/1999/xlink" width="40pt" height="40pt" viewBox="0 0 40 40" version="1.1">
<g id="surface1">
<path style=" stroke:none;fill-rule:nonzero;fill:rgb(20%,24.705882%,31.372549%);fill-opacity:1;" d="M 36.484375 5.9375 L 3.515625 5.9375 C 1.574219 5.9375 0 7.519531 0 9.453125 L 0 30.546875 C 0 32.492188 1.585938 34.0625 3.515625 34.0625 L 36.484375 34.0625 C 38.410156 34.0625 40 32.496094 40 30.546875 L 40 9.453125 C 40 7.523438 38.433594 5.9375 36.484375 5.9375 Z M 35.992188 8.28125 C 35.273438 8.996094 22.914062 21.292969 22.484375 21.714844 C 21.820312 22.378906 20.9375 22.746094 20 22.746094 C 19.0625 22.746094 18.179688 22.378906 17.511719 21.714844 C 17.226562 21.429688 5 9.269531 4.007812 8.28125 Z M 2.34375 30.070312 L 2.34375 9.929688 L 12.472656 20.007812 Z M 4.007812 31.71875 L 14.132812 21.660156 L 15.855469 23.375 C 16.964844 24.480469 18.433594 25.089844 20 25.089844 C 21.566406 25.089844 23.035156 24.480469 24.140625 23.375 L 25.867188 21.660156 L 35.992188 31.71875 Z M 37.65625 30.070312 L 27.527344 20.007812 L 37.65625 9.929688 Z M 37.65625 30.070312 "/>
</g>
</svg>
